<mxfile host="app.diagrams.net" modified="2022-10-14T08:54:27.957Z" agent="5.0 (Windows NT 10.0; Win64; x64) AppleWebKit/537.36 (KHTML, like Gecko) Chrome/106.0.0.0 Safari/537.36" etag="NGf7rif582PwJZJ963Zz" version="20.4.0" type="github">
  <diagram id="OInQUNuNO3AYRQuPPQoJ" name="第 1 页">
    <mxGraphModel dx="1718" dy="85" grid="1" gridSize="10" guides="1" tooltips="1" connect="1" arrows="1" fold="1" page="1" pageScale="1" pageWidth="1100" pageHeight="850" math="0" shadow="0">
      <root>
        <mxCell id="0" />
        <mxCell id="1" parent="0" />
        <mxCell id="uVVe6Fx2w5aPzLkoE2WO-1" value="&lt;span style=&quot;font-weight: 400;&quot;&gt;Redis Content&lt;/span&gt;" style="rounded=0;whiteSpace=wrap;html=1;dashed=1;strokeWidth=2;fillColor=none;verticalAlign=top;fontStyle=1" parent="1" vertex="1">
          <mxGeometry x="40" y="890" width="740" height="220" as="geometry" />
        </mxCell>
        <mxCell id="uVVe6Fx2w5aPzLkoE2WO-3" value="&lt;div&gt;Routing information&lt;/div&gt;" style="rounded=0;whiteSpace=wrap;html=1;fontColor=#000000;fillColor=none;" parent="1" vertex="1">
          <mxGeometry x="60" y="920" width="140" height="60" as="geometry" />
        </mxCell>
        <mxCell id="uVVe6Fx2w5aPzLkoE2WO-4" value="&lt;div&gt;Config&lt;/div&gt;" style="rounded=0;whiteSpace=wrap;html=1;fontColor=#000000;fillColor=none;" parent="1" vertex="1">
          <mxGeometry x="230" y="920" width="140" height="60" as="geometry" />
        </mxCell>
        <mxCell id="VwqyjvsuAiL3YUs5BPZM-1" value="&lt;div&gt;Message Code&lt;/div&gt;" style="rounded=0;whiteSpace=wrap;html=1;fontColor=#000000;fillColor=none;" vertex="1" parent="1">
          <mxGeometry x="400" y="920" width="140" height="60" as="geometry" />
        </mxCell>
        <mxCell id="VwqyjvsuAiL3YUs5BPZM-2" value="&lt;div&gt;Message Code&lt;/div&gt;" style="rounded=0;whiteSpace=wrap;html=1;fontColor=#000000;fillColor=none;" vertex="1" parent="1">
          <mxGeometry x="570" y="920" width="140" height="60" as="geometry" />
        </mxCell>
        <mxCell id="VwqyjvsuAiL3YUs5BPZM-3" value="&lt;div&gt;Role Permissions&lt;/div&gt;" style="rounded=0;whiteSpace=wrap;html=1;fontColor=#000000;fillColor=none;" vertex="1" parent="1">
          <mxGeometry x="60" y="1010" width="140" height="60" as="geometry" />
        </mxCell>
        <mxCell id="VwqyjvsuAiL3YUs5BPZM-4" value="&lt;div&gt;Token JWT&lt;/div&gt;" style="rounded=0;whiteSpace=wrap;html=1;fontColor=#000000;fillColor=none;" vertex="1" parent="1">
          <mxGeometry x="230" y="1010" width="140" height="60" as="geometry" />
        </mxCell>
        <mxCell id="VwqyjvsuAiL3YUs5BPZM-5" value="&lt;div&gt;Reflush Token&lt;/div&gt;" style="rounded=0;whiteSpace=wrap;html=1;fontColor=#000000;fillColor=none;" vertex="1" parent="1">
          <mxGeometry x="570" y="1010" width="140" height="60" as="geometry" />
        </mxCell>
        <mxCell id="VwqyjvsuAiL3YUs5BPZM-6" value="&lt;div&gt;Token UserInfo&lt;/div&gt;" style="rounded=0;whiteSpace=wrap;html=1;fontColor=#000000;fillColor=none;" vertex="1" parent="1">
          <mxGeometry x="400" y="1010" width="140" height="60" as="geometry" />
        </mxCell>
      </root>
    </mxGraphModel>
  </diagram>
</mxfile>
